<svg xmlns="http://www.w3.org/2000/svg" width="16" height="16" viewBox="0 0 16 16">
  <g id="Icon_Decrease" data-name="Icon / Decrease" transform="translate(8635 11366)">
    <rect id="Rectangle_2017" data-name="Rectangle 2017" width="16" height="16" transform="translate(-8635 -11366)" fill="none"/>
    <g id="increase-up-profit-icon" transform="translate(-8633.667 -11361.691)">
      <path id="Path_22506" data-name="Path 22506" d="M.216,1.256A.728.728,0,1,1,1.232.212l3,2.927L6.74.719a.728.728,0,0,1,1.03.02l4.1,4.147V2.795a.73.73,0,0,1,1.46,0V6.661h0a.727.727,0,0,1-.774.726H8.936a.73.73,0,1,1,0-1.46h1.913L7.233,2.267l-2.5,2.412a.727.727,0,0,1-1.012,0L.216,1.256Z" transform="translate(0.004 -0.006)" fill="#e53935"/>
    </g>
  </g>
</svg>
